<?xml version="1.0" encoding="UTF-8"?>
<svg version="1.1" xmlns="http://www.w3.org/2000/svg" width="500" height="500">
<path d="M0 0 C1.08656138 -0.00382555 2.17312275 -0.00765109 3.29261023 -0.01159257 C6.92824159 -0.02189946 10.56371435 -0.01793475 14.19935608 -0.01396179 C16.80806626 -0.01830951 19.41677517 -0.02349286 22.02548218 -0.02944946 C28.37262064 -0.04218408 34.71971677 -0.04399173 41.06686585 -0.0416492 C46.22681838 -0.03986461 51.38675807 -0.0416187 56.54670906 -0.04587364 C57.28169694 -0.04646883 58.01668482 -0.04706402 58.77394505 -0.04767724 C60.26717047 -0.04888902 61.76039588 -0.05010316 63.25362129 -0.05131962 C77.24975809 -0.06219025 91.24587078 -0.06003484 105.24200893 -0.05393478 C118.03991215 -0.0487652 130.83773927 -0.06002298 143.63562744 -0.07903299 C156.78471918 -0.0984146 169.93377492 -0.10666688 183.08288103 -0.10290974 C190.46183405 -0.1009983 197.84072227 -0.10347982 205.21966362 -0.11762428 C212.15785116 -0.1307896 219.09588388 -0.12827369 226.03407097 -0.11521339 C228.5801702 -0.11284462 231.12628011 -0.11559301 233.6723671 -0.12383652 C237.14853619 -0.13427973 240.62419123 -0.12622217 244.1003418 -0.11352539 C245.10725647 -0.12089968 246.11417115 -0.12827396 247.15159839 -0.13587171 C254.68672143 -0.07799226 261.31526927 1.07511345 267.11366272 6.32319641 C267.97991272 7.08309875 267.97991272 7.08309875 268.86366272 7.85835266 C270.11366272 9.26069641 270.11366272 9.26069641 270.11366272 11.26069641 C270.77366272 11.26069641 271.43366272 11.26069641 272.11366272 11.26069641 C274.56903486 17.02701555 275.55202001 21.58943226 275.5080719 27.82414246 C275.514163 28.64879977 275.52025411 29.47345709 275.52652979 30.32310402 C275.54308335 33.06660453 275.53839499 35.80963702 275.53358459 38.55317688 C275.54092935 40.52825906 275.54951676 42.50333696 275.55924988 44.47840881 C275.58143136 49.82971368 275.58439825 55.1808644 275.58250237 60.53220892 C275.58238251 65.00527245 275.59095268 69.47830349 275.59927988 73.95135796 C275.61850174 84.50712962 275.62140214 95.0628222 275.61463928 105.61860657 C275.60799875 116.49548741 275.63086631 127.3720291 275.66795301 138.24884117 C275.69867474 147.59941968 275.71000736 156.94988924 275.7061162 166.3005172 C275.70405133 171.87989595 275.70948778 177.45901072 275.73400879 183.03834152 C275.75631416 188.28670195 275.75436631 193.53451185 275.73408127 198.78287506 C275.73067799 200.70407923 275.73573075 202.62532074 275.75006485 204.54647446 C275.89317837 225.15680085 275.89317837 225.15680085 268.29965973 233.17651176 C263.87562803 237.3333893 259.42321921 239.50484642 253.27843189 239.52355194 C251.85152412 239.53507538 251.85152412 239.53507538 250.39578992 239.54683161 C249.35883739 239.54509864 248.32188486 239.54336568 247.25350952 239.5415802 C246.14556681 239.54752244 245.03762411 239.55346469 243.89610738 239.559587 C240.17603351 239.57695826 236.4560884 239.57997724 232.73597717 239.58296204 C230.07168979 239.5922186 227.40741409 239.6022269 224.74313354 239.61305237 C217.49919428 239.64019227 210.2552772 239.65226435 203.01129556 239.66107368 C198.4859109 239.66660327 193.96053476 239.67507886 189.43515587 239.68408203 C176.89942239 239.70846427 164.36369571 239.72906325 151.82793903 239.73583221 C151.02594 239.73627135 150.22394096 239.73671048 149.39763893 239.73716292 C148.59374817 239.73759947 147.78985741 239.73803603 146.96160632 239.73848581 C145.33268567 239.73937274 143.70376501 239.74026586 142.07484436 239.74116516 C140.86284945 239.74182945 140.86284945 239.74182945 139.6263698 239.74250716 C126.53862426 239.75040051 113.45110162 239.78530173 100.36344216 239.83188421 C86.91833917 239.87935161 73.47334792 239.90423775 60.0281598 239.90656805 C52.482459 239.90839937 44.93704863 239.91984811 37.39142799 239.95620728 C30.96515439 239.9870642 24.53926094 239.99721846 18.1129273 239.98073107 C14.83646932 239.97293656 11.56093334 239.97797068 8.28453827 240.00284576 C4.72528202 240.02828023 1.16797766 240.01653711 -2.39126587 239.99568176 C-3.92996425 240.01985098 -3.92996425 240.01985098 -5.49974746 240.04450846 C-12.95382015 239.94263012 -17.96282849 237.77200656 -23.88633728 233.26069641 C-26.14024353 230.81147766 -26.14024353 230.81147766 -27.44883728 228.57319641 C-27.90387634 227.82682922 -28.35891541 227.08046204 -28.82774353 226.31147766 C-31.0675124 221.97244202 -31.032124 218.04570498 -31.02677917 213.2850647 C-31.0297503 212.46326837 -31.03272142 211.64147205 -31.03578258 210.7947728 C-31.04447886 208.03120652 -31.04597862 205.26768351 -31.04747009 202.50410461 C-31.05209767 200.52651883 -31.05712225 198.54893394 -31.06251526 196.5713501 C-31.07564851 191.19099723 -31.08208621 185.81065685 -31.08652592 180.43029046 C-31.08945561 177.06912775 -31.09356026 173.70796847 -31.09803009 170.34680748 C-31.11170847 159.8314663 -31.12137303 149.31613292 -31.12523198 138.80078346 C-31.12971142 126.66100562 -31.14725266 114.52134044 -31.17623258 102.38159686 C-31.19785149 92.99974566 -31.2079364 83.61792615 -31.2092731 74.23605031 C-31.21032113 68.63212868 -31.21622831 63.02831291 -31.23409271 57.4244175 C-31.25057657 52.15081183 -31.25272729 46.87739156 -31.2439537 41.6037693 C-31.24318346 39.67044071 -31.24752439 37.73710214 -31.25741196 35.80379868 C-31.2701407 33.15939464 -31.26424963 30.51564627 -31.25382996 27.87124634 C-31.26188636 27.11062387 -31.26994277 26.35000141 -31.2782433 25.56632978 C-31.22904609 20.20808062 -29.99027055 16.19185776 -27.88633728 11.26069641 C-27.22633728 11.26069641 -26.56633728 11.26069641 -25.88633728 11.26069641 C-25.68008728 10.70382141 -25.47383728 10.14694641 -25.26133728 9.57319641 C-22.30001259 4.5927867 -18.51665315 2.18583169 -13.04468238 0.68289149 C-8.73415395 -0.16029336 -4.37691951 -0.01639189 0 0 Z M25.11366272 27.26069641 C24.31051317 30.24933582 23.51169005 33.23902496 22.71522522 36.22944641 C22.49036438 37.06443665 22.26550354 37.89942688 22.03382874 38.75971985 C20.310229 45.25079016 18.99617865 51.72878308 17.88710022 58.35444641 C17.27516347 61.44503608 16.54540308 64.37317655 15.68788147 67.39741516 C13.92172684 73.72233424 12.72809779 80.11676083 11.55116272 86.57319641 C11.13711532 88.840843 10.71927083 91.10780023 10.29725647 93.37397766 C10.11735168 94.36180237 9.9374469 95.34962708 9.75209045 96.36738586 C9.07783538 99.42306347 8.12020347 102.29994063 7.11366272 105.26069641 C6.59608565 107.80251469 6.11592195 110.33113997 5.67616272 112.88569641 C4.80871968 117.72744483 3.85962709 122.49863362 2.61366272 127.26069641 C1.41160705 131.87483718 0.46509383 136.50867347 -0.38633728 141.19819641 C-2.03243878 150.24746795 -4.08505094 159.16769772 -6.38633728 168.07319641 C-7.58259133 172.86457565 -8.66070934 177.67021056 -9.63633728 182.51069641 C-9.89930603 183.79460266 -10.16227478 185.07850891 -10.43321228 186.40132141 C-11.0625973 191.7619455 -11.17028017 196.20278794 -8.21446228 200.94038391 C-7.52868103 201.66483704 -6.84289978 202.38929016 -6.13633728 203.13569641 C-5.46086853 203.87561829 -4.78539978 204.61554016 -4.08946228 205.37788391 C0.49864627 209.29892703 5.06203682 209.55316743 10.89874268 209.52812195 C11.67591764 209.53265306 12.45309261 209.53718417 13.25381833 209.54185259 C15.85454003 209.55449916 18.45505237 209.55287605 21.05580139 209.55122375 C22.92206593 209.55720896 24.78832799 209.56401449 26.65458679 209.57157898 C31.72299556 209.58924989 36.7913368 209.59393491 41.8597734 209.59521055 C45.02833174 209.59663243 48.19687293 209.60090279 51.36542702 209.60620499 C62.42547825 209.62471096 73.48548128 209.63287515 84.54554749 209.63130188 C94.84462353 209.63010128 105.14348973 209.65118615 115.44251269 209.68278921 C124.29196346 209.7089735 133.14134581 209.71966822 141.99083501 209.71839106 C147.27288742 209.71788193 152.55475347 209.72353755 157.8367672 209.74474716 C162.8084206 209.76416499 167.7797106 209.76422972 172.75137711 209.7497139 C174.57098867 209.7476289 176.39062319 209.75230822 178.21019554 209.76443481 C191.6254753 209.86175455 191.6254753 209.86175455 204.11366272 205.26069641 C204.11366272 204.60069641 204.11366272 203.94069641 204.11366272 203.26069641 C204.89741272 203.03382141 205.68116272 202.80694641 206.48866272 202.57319641 C209.33241272 201.47944641 209.33241272 201.47944641 210.42616272 198.63569641 C210.76647522 197.46007141 210.76647522 197.46007141 211.11366272 196.26069641 C211.77366272 196.26069641 212.43366272 196.26069641 213.11366272 196.26069641 C214.72901197 191.77515579 215.72633958 187.3908343 216.55116272 182.69819641 C218.20824685 173.52082486 220.2803652 164.47757172 222.61366272 155.44819641 C224.11799271 149.51706202 225.21578626 143.53427619 226.26991272 137.51069641 C226.8783479 134.25417197 227.65359607 131.06316652 228.47694397 127.85444641 C230.50519146 119.87625688 232.13387647 111.82016608 233.80116272 103.76069641 C235.93269013 93.49510087 238.09462291 83.23951415 240.41444397 73.01460266 C240.60004379 72.19394318 240.78564362 71.37328369 240.97686768 70.52775574 C241.86644257 66.59916132 242.76441833 62.67276849 243.67494202 58.74897766 C243.99854178 57.32716549 244.32187946 55.90529364 244.64491272 54.48335266 C244.929151 53.2536676 245.21338928 52.02398254 245.50624084 50.7570343 C246.63363506 44.26772059 246.46966198 39.99386181 243.11366272 34.26069641 C242.45366272 34.26069641 241.79366272 34.26069641 241.11366272 34.26069641 C240.92803772 33.66257141 240.74241272 33.06444641 240.55116272 32.44819641 C238.47173385 29.28384814 235.62248914 28.31739944 232.11366272 27.26069641 C229.20487316 26.86676396 226.34531815 26.86729618 223.4133606 26.89993286 C222.56208428 26.89736959 221.71080797 26.89480631 220.83373541 26.89216536 C217.99463865 26.88724241 215.15607924 26.90369574 212.31703186 26.92012024 C210.27661654 26.92096683 208.23620031 26.92049074 206.19578552 26.91879272 C200.66530438 26.91793261 195.13501876 26.93556114 189.60458302 26.9565146 C183.82168525 26.97527861 178.0387829 26.97703163 172.25585938 26.98059082 C161.30897381 26.98991207 150.36217822 27.01452702 139.41533226 27.04463929 C126.95109084 27.07818073 114.4868451 27.09466868 102.02256978 27.10972559 C76.38621756 27.14107644 50.74994518 27.19383858 25.11366272 27.26069641 Z " fill="#FE741F" transform="translate(127.88633728027344,150.7393035888672)"/>
<path d="M0 0 C13.84737589 -0.09352613 27.69470266 -0.16375351 41.54232979 -0.20724869 C47.9723417 -0.22812412 54.40214145 -0.25644168 60.83203125 -0.30175781 C67.03712932 -0.34521605 73.2420233 -0.36913744 79.44726181 -0.37950897 C81.8147592 -0.38690029 84.1822454 -0.40133371 86.54965591 -0.42292023 C89.86554361 -0.45195294 93.1805877 -0.45595592 96.49658203 -0.45410156 C97.4755394 -0.46848267 98.45449677 -0.48286377 99.46311951 -0.49768066 C105.14324776 -0.4633043 108.54790403 0.10595026 113 4 C115.89438551 8.34157827 115.41161375 11.90936172 115 17 C114.59986794 18.83206912 114.15183457 20.65413634 113.6640625 22.46484375 C111.89061799 29.30692402 110.46463242 36.1986871 109.0625 43.125 C106.81641904 54.10919167 104.48784491 65.06811679 102 76 C99 76 99 76 96 75 C96 74.34 96 73.68 96 73 C95.42870361 72.88825439 94.85740723 72.77650879 94.26879883 72.66137695 C91.72837819 71.9208196 89.91990866 70.8529552 87.69921875 69.41796875 C86.88646484 68.89783203 86.07371094 68.37769531 85.23632812 67.84179688 C84.39521484 67.29587891 83.55410156 66.74996094 82.6875 66.1875 C77.19468165 62.6493909 71.70829366 59.18154559 66 56 C66 55.34 66 54.68 66 54 C64.02 53.505 64.02 53.505 62 53 C62.28632177 51.14500045 62.57934415 49.29103476 62.875 47.4375 C63.03742188 46.40496094 63.19984375 45.37242187 63.3671875 44.30859375 C64.03342568 40.82523734 65.02570218 37.41004237 66 34 C56.76 34.33 47.52 34.66 38 35 C35.33467471 45.9574484 32.95767157 56.92681611 30.83911133 68.00366211 C29.6983099 73.87298916 28.32676192 79.60171487 26.70727539 85.35644531 C25.59580653 89.51073762 24.79789768 93.71377791 24 97.9375 C22.7583376 104.34080339 21.37712262 110.6567179 19.7265625 116.96875 C18.21908968 123.25799144 17.15175887 129.63790338 16 136 C25.24 136.33 34.48 136.66 44 137 C44.33 134.03 44.66 131.06 45 128 C45.40484117 126.27820563 45.85601257 124.56589452 46.375 122.875 C48.35986568 116.00130259 49.66344364 109.02403023 51 102 C54.24257144 102.63424716 56.5337572 103.79400942 59.30078125 105.58203125 C60.11353516 106.10216797 60.92628906 106.62230469 61.76367188 107.15820312 C62.60478516 107.70412109 63.44589844 108.25003906 64.3125 108.8125 C69.80531835 112.3506091 75.29170634 115.81845441 81 119 C81 119.66 81 120.32 81 121 C81.86625 121.185625 81.86625 121.185625 82.75 121.375 C85.13741194 122.03816998 86.95313022 122.58836567 89 124 C92.17069219 134.09519237 86.10643794 149.10741992 83.87890625 159.0859375 C83.60147583 160.33141357 83.32404541 161.57688965 83.03820801 162.86010742 C82.35944241 165.90688089 81.6800246 168.95350733 81 172 C67.24841361 172.04629987 53.4968457 172.08185728 39.7451973 172.10362434 C33.36005148 172.11407037 26.97495892 172.12824461 20.58984375 172.15087891 C14.43015773 172.17257794 8.27052299 172.18456245 2.1108017 172.18975449 C-0.24157773 172.19345552 -2.5939543 172.20068252 -4.94631195 172.21146011 C-8.23608002 172.22593581 -11.525635 172.22797957 -14.81542969 172.22705078 C-15.79222687 172.23424133 -16.76902405 172.24143188 -17.77542114 172.24884033 C-18.67282013 172.246091 -19.57021912 172.24334167 -20.49481201 172.24050903 C-21.27280529 172.24235262 -22.05079857 172.24419621 -22.8523674 172.24609566 C-25.27039328 171.96901583 -26.90115794 171.20301541 -29 170 C-29 169.34 -29 168.68 -29 168 C-29.66 168 -30.32 168 -31 168 C-31 167.34 -31 166.68 -31 166 C-31.66 166 -32.32 166 -33 166 C-34.39362994 158.88650237 -33.34198745 153.02978013 -31.8125 146 C-31.46566162 144.33723022 -31.46566162 144.33723022 -31.11181641 142.64086914 C-29.55073185 135.25714331 -27.78426157 127.94465179 -25.890625 120.640625 C-24.8472351 116.37553996 -24.05400974 112.09032147 -23.2824707 107.76904297 C-20.53137788 92.67681836 -16.91991088 77.72226525 -13.33056641 62.81030273 C-12.05564001 57.43183296 -11.04805463 52.02416117 -10.07128906 46.58618164 C-9.39896156 42.91252222 -8.60155583 39.33641852 -7.5625 35.75 C-5.37734581 28.17096521 -4.0166853 20.3976798 -2.51864624 12.66020203 C-2.00033367 10.00171146 -1.47184343 7.3454509 -0.93969727 4.68969727 C-0.76277847 3.80637222 -0.58585968 2.92304718 -0.40357971 2.01295471 C-0.27039841 1.34867966 -0.1372171 0.6844046 0 0 Z " fill="#070707" transform="translate(156,183)"/>
<path d="M0 0 C11.37011129 -0.06954598 22.74017188 -0.12283473 34.11045265 -0.15543652 C39.3902806 -0.17108465 44.6699629 -0.19230755 49.94970703 -0.22631836 C55.04605921 -0.25894192 60.14227139 -0.27685943 65.23871994 -0.28463173 C67.18196186 -0.29016983 69.12519621 -0.30098441 71.06837845 -0.31719017 C73.79266093 -0.33900418 76.51636673 -0.34196525 79.24072266 -0.34057617 C80.44266266 -0.35675491 80.44266266 -0.35675491 81.66888428 -0.3732605 C86.51086706 -0.34658964 89.79777321 0.33681579 94 3 C97.77663571 7.75125137 96.96057473 12.02001214 96.41674805 17.71069336 C95.75782155 22.91146471 94.63421798 27.96247189 93.4375 33.0625 C93.17864014 34.19792236 92.91978027 35.33334473 92.65307617 36.50317383 C91.93406692 39.65049929 91.20780803 42.79603869 90.47766113 45.9407959 C89.08817029 51.93091115 87.71168187 57.92402659 86.33547974 63.91720581 C85.82846414 66.11819848 85.31681706 68.31807169 84.80444336 70.51782227 C82.87732185 78.8414338 81.16471818 87.17323648 79.66259766 95.58447266 C79.09417033 98.51457521 78.40900922 101.3280653 77.5625 104.1875 C76.00507855 109.56101171 75.01207634 115.0038234 74 120.5 C72.83056911 126.85070543 71.55191561 133.05360628 69.71484375 139.25 C68.59450404 143.55994075 67.87515416 147.94826204 67.17749023 152.3449707 C66.436561 156.687022 65.24640094 160.2067103 63 164 C60.8125 165.375 60.8125 165.375 59 166 C59 166.66 59 167.32 59 168 C53.25403948 171.25680381 49.2175667 172.58360034 42.65625 172.45410156 C41.86504257 172.45468567 41.07383514 172.45526978 40.25865173 172.45587158 C37.67197088 172.45310922 35.08647676 172.42210699 32.5 172.390625 C30.69540028 172.38315599 28.8907924 172.37746618 27.08618164 172.37347412 C22.35794312 172.35826971 17.63020337 172.31903326 12.90216064 172.2746582 C8.06895696 172.2335929 3.23567196 172.21543915 -1.59765625 172.1953125 C-11.06532219 172.15253349 -20.53261946 172.08434575 -30 172 C-29.84666528 170.56968559 -29.69173191 169.1395425 -29.53613281 167.70947266 C-29.45002747 166.91304352 -29.36392212 166.11661438 -29.27520752 165.29605103 C-28.5766578 159.4680642 -27.21707787 153.73748657 -26 148 C-25.79793945 147.04432129 -25.59587891 146.08864258 -25.38769531 145.10400391 C-24.72144322 141.96415559 -24.0494314 138.82560106 -23.375 135.6875 C-23.15682617 134.66640137 -22.93865234 133.64530273 -22.71386719 132.59326172 C-22.50665039 131.63822754 -22.29943359 130.68319336 -22.0859375 129.69921875 C-21.9007959 128.84158936 -21.7156543 127.98395996 -21.52490234 127.1003418 C-21 125 -21 125 -20 123 C-21.3303125 122.62875 -21.3303125 122.62875 -22.6875 122.25 C-26.15261027 120.94241122 -28.16462983 119.33918039 -31 117 C-32.97711651 115.95548562 -34.97250996 114.94301862 -37 114 C-37 113.34 -37 112.68 -37 112 C-38.32 111.67 -39.64 111.34 -41 111 C-41.35179019 105.72314718 -40.41611744 101.58176131 -38.93359375 96.53125 C-36.88566226 88.78509908 -35.51297388 80.86538369 -34 73 C-30 73 -30 73 -27 74 C-27 74.66 -27 75.32 -27 76 C-26.18789062 76.13728516 -26.18789062 76.13728516 -25.359375 76.27734375 C-22.27832394 77.22104316 -19.9421373 78.79979105 -17.25 80.5625 C-16.26515625 81.20316406 -15.2803125 81.84382813 -14.265625 82.50390625 C-13.14414062 83.24447266 -13.14414062 83.24447266 -12 84 C-11.83395264 83.21463867 -11.66790527 82.42927734 -11.49682617 81.62011719 C-10.72929989 77.99626432 -9.95841809 74.37313276 -9.1875 70.75 C-8.92646484 69.51507813 -8.66542969 68.28015625 -8.39648438 67.0078125 C-6.9680347 60.30644366 -5.44498447 53.64631608 -3.7565918 47.00585938 C-2.36562506 41.47969529 -1.08214505 35.93008897 0.1875 30.375 C0.59645508 28.65023437 0.59645508 28.65023437 1.01367188 26.890625 C3.87925135 15.29354875 3.87925135 15.29354875 1.5 4 C1.005 3.34 0.51 2.68 0 2 C0 1.34 0 0.68 0 0 Z M20 34 C16.58373283 44.24880151 14.18096557 54.64308459 12.27441406 65.26586914 C9.62713194 79.74595792 6.13868094 94.07676186 2.83203125 108.41796875 C2.46247933 110.02368063 2.09293179 111.62939352 1.72338867 113.23510742 C0.99984157 116.37817677 0.27144728 119.52007173 -0.4597168 122.66137695 C-0.79358634 124.10755479 -1.12733258 125.5537611 -1.4609375 127 C-1.75790527 128.27875 -2.05487305 129.5575 -2.36083984 130.875 C-3.10019144 133.95824309 -3.10019144 133.95824309 -3 137 C6.57 137 16.14 137 26 137 C28.86318296 125.21690091 31.40655298 113.39374635 33.80517578 101.50708008 C35.15935852 94.84893948 36.65838041 88.25984749 38.34155273 81.67749023 C39.21772771 78.11463857 39.87194778 74.55253868 40.5 70.9375 C41.31259536 66.39728468 42.21954848 61.9348972 43.5 57.5 C44.84052548 52.85426356 45.80180076 48.186535 46.6875 43.4375 C46.81898438 42.73367187 46.95046875 42.02984375 47.0859375 41.3046875 C47.76585604 37.67565431 47.76585604 37.67565431 48 34 C38.76 34 29.52 34 20 34 Z " fill="#090808" transform="translate(272,183)"/>
<path d="M0 0 C6.27 0 12.54 0 19 0 C18.34 5.28 17.68 10.56 17 16 C19.475 17.423125 19.475 17.423125 22 18.875 C24.8125 20.4921875 24.8125 20.4921875 27 22 C27 22.66 27 23.32 27 24 C27.87398437 24.16822266 27.87398437 24.16822266 28.765625 24.33984375 C31.20310657 25.06000876 32.7250586 26.04379395 34.75 27.5625 C35.36359375 28.01753906 35.9771875 28.47257812 36.609375 28.94140625 C37.06828125 29.29074219 37.5271875 29.64007813 38 30 C36.49572545 37.90544287 34.90469111 45.68117193 32.69140625 53.421875 C31.75398369 56.91734895 31.07881632 60.44508597 30.4296875 64.00390625 C30 66 30 66 29 68 C24.69235185 66.43358249 20.93828536 64.31663844 17 62 C17 61.34 17 60.68 17 60 C15.88625 59.566875 15.88625 59.566875 14.75 59.125 C12.43260203 58.17697356 10.22082885 57.15154089 8 56 C6.39578326 60.44930199 5.42251648 64.77906552 4.625 69.4375 C3.2057989 77.44296039 1.18378063 85.16851086 -1 93 C-7.27 93 -13.54 93 -20 93 C-18.80969624 85.0646416 -17.16781745 77.38487176 -15.09765625 69.640625 C-14.10046926 65.6653777 -13.3572901 61.65098456 -12.62109375 57.62109375 C-10.97506411 48.63252043 -9.00538144 39.72666505 -7 30.8125 C-6.65340671 29.26112111 -6.30705196 27.70968891 -5.9609375 26.15820312 C-4.01080671 17.43011953 -2.02159966 8.71183105 0 0 Z " fill="#FB7725" transform="translate(197,222)"/>
<path d="M0 0 C5.94 0 11.88 0 18 0 C14.62601684 20.24389897 10.13240086 40.24043469 5.33056641 60.18969727 C4.21504589 64.89568926 3.29448905 69.61725256 2.4375 74.375 C1.2912006 80.71113844 -0.19748634 86.81995316 -2 93 C-7.94 93 -13.88 93 -20 93 C-20 88.25693215 -19.98927993 85.07193453 -19.01171875 80.671875 C-18.79966797 79.70636719 -18.58761719 78.74085938 -18.36914062 77.74609375 C-18.14419922 76.75738281 -17.91925781 75.76867187 -17.6875 74.75 C-17.47416016 73.77675781 -17.26082031 72.80351562 -17.04101562 71.80078125 C-15.95692654 66.92723449 -14.77351582 62.1043784 -13.42578125 57.296875 C-12.15473785 52.72324603 -11.23725694 48.18529296 -10.5 43.5 C-9.57188006 37.93311095 -8.41422873 32.58337768 -6.8203125 27.1640625 C-5.43005401 21.8016369 -4.45293667 16.34892764 -3.44555664 10.90307617 C-3.28692139 10.0701001 -3.12828613 9.23712402 -2.96484375 8.37890625 C-2.8268335 7.6319751 -2.68882324 6.88504395 -2.54663086 6.11547852 C-2 4 -2 4 0 0 Z " fill="#FB7624" transform="translate(296,222)"/>
<path d="M0 0 C1.08656138 -0.00382555 2.17312275 -0.00765109 3.29261023 -0.01159257 C6.92824159 -0.02189946 10.56371435 -0.01793475 14.19935608 -0.01396179 C16.80806626 -0.01830951 19.41677517 -0.02349286 22.02548218 -0.02944946 C28.37262064 -0.04218408 34.71971677 -0.04399173 41.06686585 -0.0416492 C46.22681838 -0.03986461 51.38675807 -0.0416187 56.54670906 -0.04587364 C57.28169694 -0.04646883 58.01668482 -0.04706402 58.77394505 -0.04767724 C60.26717047 -0.04888902 61.76039588 -0.05010316 63.25362129 -0.05131962 C77.24975809 -0.06219025 91.24587078 -0.06003484 105.24200893 -0.05393478 C118.03991215 -0.0487652 130.83773927 -0.06002298 143.63562744 -0.07903299 C156.78471918 -0.0984146 169.93377492 -0.10666688 183.08288103 -0.10290974 C190.46183405 -0.1009983 197.84072227 -0.10347982 205.21966362 -0.11762428 C212.15785116 -0.1307896 219.09588388 -0.12827369 226.03407097 -0.11521339 C228.5801702 -0.11284462 231.12628011 -0.11559301 233.6723671 -0.12383652 C237.14853619 -0.13427973 240.62419123 -0.12622217 244.1003418 -0.11352539 C245.10725647 -0.12089968 246.11417115 -0.12827396 247.15159839 -0.13587171 C253.14793762 -0.0898121 257.66951805 0.6765322 263.11366272 3.26069641 C263.44366272 3.92069641 263.77366272 4.58069641 264.11366272 5.26069641 C261.80366272 4.93069641 259.49366272 4.60069641 257.11366272 4.26069641 C257.11366272 3.60069641 257.11366272 2.94069641 257.11366272 2.26069641 C169.33366272 2.59069641 81.55366272 2.92069641 -8.88633728 3.26069641 C-8.88633728 3.59069641 -8.88633728 3.92069641 -8.88633728 4.26069641 C-12.18633728 4.26069641 -15.48633728 4.26069641 -18.88633728 4.26069641 C-17.88633728 2.26069641 -17.88633728 2.26069641 -15.00423336 1.15198994 C-10.04440763 -0.13245606 -5.09340101 -0.01907516 0 0 Z " fill="#F4A87B" transform="translate(127.88633728027344,150.7393035888672)"/>
<path d="M0 0 C0.66 0.33 1.32 0.66 2 1 C1.67 2.65 1.34 4.3 1 6 C0.34 6 -0.32 6 -1 6 C-0.93953597 32.67693742 -0.86208622 59.35377841 -0.76428509 86.03060627 C-0.71927491 98.41647302 -0.67987236 110.80231067 -0.65356445 123.18823242 C-0.6306266 133.98086928 -0.59727598 144.77341448 -0.55129844 155.56597871 C-0.52730927 161.28321498 -0.50861788 167.00036015 -0.50238609 172.71764565 C-0.49636093 178.09466392 -0.47645463 183.47144893 -0.44572449 188.84838104 C-0.4369029 190.82571229 -0.43323014 192.80307397 -0.43499184 194.78042412 C-0.43663374 197.47277023 -0.4200387 200.164396 -0.39872742 202.85664368 C-0.40357499 203.64554955 -0.40842257 204.43445543 -0.41341704 205.24726754 C-0.45543254 209.34209787 -0.45543254 209.34209787 1.52492046 212.75895977 C2.01169671 213.16850305 2.49847296 213.57804632 3 214 C3 215.32 3 216.64 3 218 C3.66 218 4.32 218 5 218 C5.33 219.32 5.66 220.64 6 222 C8.31 222.66 10.62 223.32 13 224 C12.505 224.99 12.505 224.99 12 226 C6.24140941 224.02562608 2.50368793 221.3180097 -0.61779785 216.06570435 C-4.50573929 208.00643234 -3.68046436 199.19130047 -3.61523438 190.44873047 C-3.61873936 188.47010828 -3.62440219 186.49148893 -3.63204956 184.51287842 C-3.64625092 179.16167571 -3.62928256 173.81098972 -3.60576439 168.45983648 C-3.58560179 162.85018996 -3.59153766 157.24056376 -3.59387207 151.63088989 C-3.59381857 142.21428951 -3.5740998 132.79789024 -3.54199219 123.38134766 C-3.50508103 112.50331563 -3.49632035 101.62554672 -3.5032897 90.74746025 C-3.50959972 80.26840349 -3.4988325 69.78943669 -3.47932434 59.3103981 C-3.47116187 54.85684042 -3.46843866 50.40332879 -3.47001648 45.94976425 C-3.47089689 40.70474428 -3.45663697 35.45997345 -3.43078995 30.21501923 C-3.42364248 28.29298994 -3.42153767 26.37093412 -3.42490768 24.4488945 C-3.42863696 21.82014349 -3.41382511 19.19211382 -3.39440918 16.56344604 C-3.39973711 15.80759842 -3.40506503 15.05175079 -3.41055441 14.27299869 C-3.3427843 8.93462885 -2.09260455 4.91437754 0 0 Z " fill="#F4A777" transform="translate(100,162)"/>
<path d="M0 0 C0.33 0.66 0.66 1.32 1 2 C1.66 2 2.32 2 3 2 C5.46594104 7.78267958 6.43495579 12.34390518 6.3742218 18.59709167 C6.37819621 19.42527682 6.38217061 20.25346197 6.38626546 21.10674363 C6.39583485 23.86194961 6.38410313 26.61663519 6.37231445 29.37182617 C6.37474413 31.35501801 6.37846516 33.33820863 6.38337708 35.32139587 C6.39276373 40.6930531 6.38338027 46.06452742 6.37004495 51.43617034 C6.35871218 57.06058126 6.36283925 62.68498341 6.36479187 68.30940247 C6.36567405 77.7504881 6.35460854 87.19150182 6.33618164 96.63256836 C6.31499684 107.54920492 6.31150852 118.46573629 6.3177436 129.38238925 C6.32343621 139.88705916 6.31779398 150.39169202 6.30657005 160.89635658 C6.30192459 165.36634315 6.30104997 169.83630706 6.3031559 174.30629539 C6.30503825 179.56681317 6.29693891 184.82722373 6.2810955 190.08771706 C6.27685028 192.01907533 6.2760037 193.95044448 6.27878571 195.88180542 C6.28200466 198.51594135 6.27293299 201.14975633 6.26069641 203.78385925 C6.26447573 204.54980964 6.26825506 205.31576003 6.27214891 206.10492104 C6.23864871 210.17551663 5.81447712 213.33585533 4 217 C3.67 217 3.34 217 3 217 C3.33 148.69 3.66 80.38 4 10 C3.34 10 2.68 10 2 10 C0.68373308 6.38026598 0 3.90432869 0 0 Z " fill="#F5AE7E" transform="translate(397,160)"/>
<path d="M0 0 C-5.61840424 3.59086828 -10.59447237 3.41990611 -17.03424072 3.3742218 C-18.14868238 3.37819621 -19.26312404 3.38217061 -20.41133666 3.38626546 C-24.14707541 3.39589298 -27.88243591 3.38406729 -31.61816406 3.37231445 C-34.29558329 3.37474221 -36.97297745 3.3783449 -39.65039062 3.38337708 C-46.16746827 3.39285873 -52.68443509 3.38627151 -59.2015045 3.37411413 C-66.78777523 3.36048928 -74.37401961 3.36213232 -81.96029946 3.36424746 C-95.49145939 3.3674362 -109.02256663 3.35577456 -122.55371094 3.33618164 C-135.69174808 3.31716288 -148.82972352 3.31009816 -161.96777344 3.31567383 C-176.27148582 3.32172623 -190.57517109 3.32156562 -204.87888122 3.310188 C-206.40271107 3.30898068 -207.92654093 3.30777469 -209.45037079 3.30657005 C-210.57505075 3.30566475 -210.57505075 3.30566475 -211.72245152 3.30474115 C-217.01451761 3.30085656 -222.30657362 3.30125765 -227.59864044 3.3031559 C-234.04186997 3.30527389 -240.48504538 3.3000835 -246.92825964 3.28554235 C-250.21761083 3.27827991 -253.50686659 3.27530162 -256.7962265 3.27878571 C-260.35547102 3.28198498 -263.91447416 3.27298295 -267.47369385 3.26069641 C-268.52211338 3.26447573 -269.57053292 3.26825506 -270.65072274 3.27214891 C-271.59848824 3.26631671 -272.54625374 3.26048452 -273.52273941 3.25447559 C-274.34499897 3.25360882 -275.16725853 3.25274204 -276.01443505 3.251849 C-278 3 -278 3 -280 1 C-190.24 1.33 -100.48 1.66 -8 2 C-8 1.34 -8 0.68 -8 0 C-4.71303767 -0.79953138 -3.28976808 -1.09658936 0 0 Z " fill="#E47F40" transform="translate(392,387)"/>
<path d="M0 0 C5 5 5 5 6.5 6.6875 C10.6630348 10.33015545 15.54088274 10.28818319 20.80526733 10.26069641 C21.584559 10.26452196 22.36385066 10.26834751 23.16675723 10.27228898 C25.77448907 10.28259652 28.3819998 10.27863111 30.98974609 10.2746582 C32.86087752 10.27900594 34.73200716 10.2841893 36.60313416 10.29014587 C41.68374461 10.30354101 46.7642807 10.30411392 51.84490538 10.30158257 C56.08695787 10.30051313 60.3289953 10.3053956 64.57104456 10.310188 C74.57960106 10.32128514 84.58812002 10.32171953 94.59667969 10.31567383 C104.91963853 10.30963405 115.24246108 10.32194472 125.56539667 10.3432439 C134.43008587 10.36086135 143.29473171 10.36686099 152.15943778 10.36360615 C157.45309442 10.36179326 162.74665386 10.36443011 168.04029465 10.37832069 C173.01928079 10.39089657 177.99805455 10.38895713 182.97703743 10.37590981 C184.8027421 10.37354389 186.6284617 10.37627924 188.45414925 10.38453293 C190.94993393 10.395001 193.44500607 10.38689948 195.94076538 10.3742218 C196.66013602 10.38159609 197.37950665 10.38897037 198.1206764 10.39656812 C203.19985474 10.34243581 206.4901033 9.09164151 211 7 C211.99 7 212.98 7 214 7 C214 6.34 214 5.68 214 5 C214.99 5.495 214.99 5.495 216 6 C213.95144096 9.07283855 212.47467034 10.71485532 209 12 C206.31445133 12.18960119 203.73398897 12.26985342 201.04924011 12.25396729 C199.83870695 12.25864726 199.83870695 12.25864726 198.60371858 12.26342177 C195.89613875 12.2714069 193.18878272 12.26507605 190.48120117 12.25878906 C188.54125334 12.26149876 186.60130654 12.26505957 184.66136169 12.26940918 C179.38854386 12.2785398 174.11580415 12.27498566 168.84298491 12.26865101 C163.32625475 12.26359234 157.80953133 12.26828229 152.2928009 12.27142334 C143.02453408 12.27506429 133.7562991 12.27026147 124.48803711 12.26074219 C113.7760208 12.24986702 103.06408067 12.25337589 92.35206622 12.264395 C83.15619193 12.27347569 73.96034057 12.27474903 64.76446325 12.26951766 C59.27184349 12.26640103 53.77925952 12.26598002 48.28664207 12.27259064 C43.11974721 12.27837447 37.95295035 12.27434812 32.78606606 12.26280212 C30.89102465 12.26016069 28.99597499 12.26091181 27.10093689 12.26532745 C24.51108405 12.27080494 21.92154382 12.26392196 19.33171082 12.25396729 C18.21077673 12.26065945 18.21077673 12.26065945 17.0671975 12.26748681 C12.3050698 12.23206545 8.41606633 11.69706533 4 10 C2.5625 6.875 2.5625 6.875 2 4 C1.34 4 0.68 4 0 4 C0 2.68 0 1.36 0 0 Z " fill="#EC884A" transform="translate(118,349)"/>
<path d="M0 0 C1.14182787 2.34531955 2.15782547 4.69042734 3.0439043 7.14418411 C2.3839043 7.14418411 1.7239043 7.14418411 1.0439043 7.14418411 C-0.1317207 5.93762161 -0.1317207 5.93762161 -1.3310957 4.70668411 C-5.75862057 0.3845765 -10.35643881 0.99328414 -16.29563427 0.98596573 C-17.14434731 0.98102775 -17.99306035 0.97608977 -18.86749196 0.97100216 C-21.71570946 0.95562541 -24.56390441 0.94726604 -27.41215038 0.93886185 C-29.45212535 0.92928347 -31.49209832 0.91927341 -33.53206921 0.90886307 C-39.0750313 0.88180363 -44.61800191 0.86079966 -50.16099358 0.84086108 C-55.95194271 0.81900796 -61.74286553 0.79161597 -67.53379345 0.76480484 C-78.50197093 0.71486885 -89.470163 0.66993336 -100.43836904 0.62678248 C-112.92433593 0.57741786 -125.41027644 0.52249685 -137.89621782 0.46710289 C-163.58281916 0.35326891 -189.26944581 0.24643293 -214.9560957 0.14418411 C-215.2860957 1.13418411 -215.6160957 2.12418411 -215.9560957 3.14418411 C-215.9560957 1.82418411 -215.9560957 0.50418411 -215.9560957 -0.85581589 C-188.10592045 -1.07962579 -160.25566203 -1.28060216 -132.40512657 -1.454216 C-119.47433936 -1.53535898 -106.54368512 -1.62404155 -93.61307812 -1.73032761 C-82.34592602 -1.82292155 -71.07877926 -1.90151807 -59.81141359 -1.96313691 C-53.84254283 -1.99627276 -47.87390782 -2.03653197 -41.90521336 -2.09354019 C-36.29192319 -2.14693306 -30.67883249 -2.18166677 -25.06532764 -2.20184517 C-23.00085309 -2.21260023 -20.9364017 -2.23028033 -18.87205029 -2.25526237 C-16.06147191 -2.28825789 -13.25187274 -2.2967347 -10.44112682 -2.29887009 C-9.20524021 -2.32218356 -9.20524021 -2.32218356 -7.94438618 -2.34596801 C-2.43812474 -2.31313357 -2.43812474 -2.31313357 0 0 Z " fill="#F19B66" transform="translate(367.9560956954956,177.85581588745117)"/>
<path d="M0 0 C0.33 0 0.66 0 1 0 C1 4.29 1 8.58 1 13 C0.34 13 -0.32 13 -1 13 C-0.979375 14.134375 -0.95875 15.26875 -0.9375 16.4375 C-1 20 -1 20 -2 21 C-2.23192865 22.51469448 -2.41215238 24.03754562 -2.5625 25.5625 C-2.706875 27.026875 -2.85125 28.49125 -3 30 C1.62 30 6.24 30 11 30 C11.33 28.35 11.66 26.7 12 25 C12.93423645 28.01031744 13.04449911 28.86650268 12 32 C6.06 32 0.12 32 -6 32 C-6 27.15197708 -5.94523136 23.87367719 -4.94140625 19.35546875 C-4.72033203 18.34935547 -4.49925781 17.34324219 -4.27148438 16.30664062 C-4.03751953 15.27732422 -3.80355469 14.24800781 -3.5625 13.1875 C-3.33240234 12.13884766 -3.10230469 11.09019531 -2.86523438 10.00976562 C-1.15053354 2.30106707 -1.15053354 2.30106707 0 0 Z " fill="#EC9762" transform="translate(282,283)"/>
<path d="M0 0 C0.33 0.66 0.66 1.32 1 2 C1.66 2 2.32 2 3 2 C6.88839512 9.785678 6.28864154 17.61639399 6.07421875 26.09375 C6.04614532 27.65170939 6.01945928 29.20969434 5.99409485 30.7677002 C5.92402283 34.84504648 5.8352472 38.92177374 5.74243164 42.99865723 C5.65086568 47.16816431 5.57718591 51.3379844 5.50195312 55.5078125 C5.35203513 63.67228405 5.18233559 71.83618837 5 80 C4.67 80 4.34 80 4 80 C4 56.9 4 33.8 4 10 C3.34 10 2.68 10 2 10 C0.68373308 6.38026598 0 3.90432869 0 0 Z " fill="#E87D39" transform="translate(397,160)"/>
<path d="M0 0 C0.33 0 0.66 0 1 0 C1.2137731 7.68395543 1.01670288 14.56340812 -1 22 C-1.66 22 -2.32 22 -3 22 C-3 24.97 -3 27.94 -3 31 C-3.66 31 -4.32 31 -5 31 C-5.04898437 31.59167969 -5.09796875 32.18335938 -5.1484375 32.79296875 C-5.96033994 41.37393768 -5.96033994 41.37393768 -8 45 C-9.485 45.495 -9.485 45.495 -11 46 C-11 45.34 -11 44.68 -11 44 C-10.34 44 -9.68 44 -9 44 C-8.86335938 43.16597656 -8.72671875 42.33195312 -8.5859375 41.47265625 C-6.74465663 30.55999829 -4.55567768 19.76830483 -2 9 C-1.3235853 6.00206322 -0.66130681 3.00131554 0 0 Z " fill="#F19E67" transform="translate(350,303)"/>
<path d="M0 0 C0.33 0 0.66 0 1 0 C1.28045905 4.2068857 0.94402837 7.57821195 -0.25 11.625 C-2.14739065 18.09950839 -3.33625786 24.67109522 -4.55371094 31.29931641 C-5.58453507 36.89775783 -6.73347785 42.4498185 -8 48 C-8.33 48 -8.66 48 -9 48 C-9.20177072 40.64657821 -9.21211746 34.05112439 -7 27 C-6.34 27 -5.68 27 -5 27 C-5 23.04 -5 19.08 -5 15 C-4.34 15 -3.68 15 -3 15 C-2.86722656 14.08476562 -2.73445313 13.16953125 -2.59765625 12.2265625 C-2.42105469 11.03804688 -2.24445313 9.84953125 -2.0625 8.625 C-1.88847656 7.44164062 -1.71445313 6.25828125 -1.53515625 5.0390625 C-1 2 -1 2 0 0 Z " fill="#EE965E" transform="translate(128,284)"/>
<path d="M0 0 C0.33 0 0.66 0 1 0 C1.33 2.97 1.66 5.94 2 9 C2.66 9 3.32 9 4 9 C4 10.65 4 12.3 4 14 C3.34 14 2.68 14 2 14 C2 13.34 2 12.68 2 12 C1.34 11.67 0.68 11.34 0 11 C-0.33 14.3 -0.66 17.6 -1 21 C-1.66 21 -2.32 21 -3 21 C-3.06058594 21.85464844 -3.12117188 22.70929688 -3.18359375 23.58984375 C-3.26738281 24.69457031 -3.35117187 25.79929687 -3.4375 26.9375 C-3.51871094 28.03964844 -3.59992188 29.14179688 -3.68359375 30.27734375 C-4 33 -4 33 -5 34 C-5.23075082 35.34747084 -5.41153063 36.70377565 -5.5625 38.0625 C-5.706875 39.361875 -5.85125 40.66125 -6 42 C-6.66 42 -7.32 42 -8 42 C-8 43.98 -8 45.96 -8 48 C-8.33 48 -8.66 48 -9 48 C-9.37949783 42.43403183 -8.28520696 37.80740879 -6.85546875 32.4375 C-5.9177524 28.66950738 -5.18746574 24.88190629 -4.5 21.0625 C-3.21963416 13.9830801 -1.68883467 6.99488971 0 0 Z " fill="#F19D69" transform="translate(292,235)"/>
<path d="M0 0 C6.27 0 12.54 0 19 0 C18.71125 2.619375 18.4225 5.23875 18.125 7.9375 C18.03879395 8.7637085 17.95258789 9.58991699 17.86376953 10.44116211 C17.64445568 12.30347517 17.32484959 14.15316995 17 16 C16.34 16.33 15.68 16.66 15 17 C14.9138047 12.00067249 15.1627035 8.02377899 16 3 C11.05 2.67 6.1 2.34 1 2 C0.896875 3.7325 0.79375 5.465 0.6875 7.25 C0.43451699 11.50011452 -0.1496974 13.79054398 -3 17 C-2.88265487 15.66597118 -2.75557824 14.3327986 -2.625 13 C-2.55539063 12.2575 -2.48578125 11.515 -2.4140625 10.75 C-1.86725327 7.11836133 -0.89073003 3.56292012 0 0 Z " fill="#EEA874" transform="translate(197,222)"/>
<path d="M0 0 C0.33 0 0.66 0 1 0 C1.28841654 4.32624817 0.89197773 7.74396502 -0.34375 11.90625 C-2.18174502 18.43246419 -3.44934754 25.02541681 -4.6875 31.6875 C-4.91244141 32.87794922 -5.13738281 34.06839844 -5.36914062 35.29492188 C-5.916714 38.19589572 -6.46025716 41.09756092 -7 44 C-7.33 44 -7.66 44 -8 44 C-8.34278369 36.73513431 -7.43126952 30.44409866 -5.5625 23.4375 C-4.0399742 17.60754828 -2.72719166 12.01832531 -2.32397461 5.99243164 C-1.95175249 3.70327965 -1.12277992 2.01659969 0 0 Z " fill="#EB9A65" transform="translate(145,206)"/>
<path d="M0 0 C0.33 0 0.66 0 1 0 C1.40479844 6.23689456 0.80365506 12.12773773 -0.3125 18.25 C-0.48906128 19.25933594 -0.48906128 19.25933594 -0.66918945 20.2890625 C-1.50236353 24.60472299 -2.8727159 28.16254633 -5 32 C-6.3690722 28.21372317 -5.64698489 25.35380972 -4.78515625 21.484375 C-4.51123047 20.23398438 -4.23730469 18.98359375 -3.95507812 17.6953125 C-3.65774465 16.38016478 -3.36021613 15.06506115 -3.0625 13.75 C-2.76806349 12.4194513 -2.47443453 11.08872363 -2.18164062 9.7578125 C-1.46235913 6.50335853 -0.7348552 3.25096649 0 0 Z " fill="#EFA06A" transform="translate(367,225)"/>
<path d="M0 0 C5.94 0 11.88 0 18 0 C17.67 1.98 17.34 3.96 17 6 C16.67 4.68 16.34 3.36 16 2 C11.05 2 6.1 2 1 2 C0.67 4.31 0.34 6.62 0 9 C-0.66 9 -1.32 9 -2 9 C-2.33 10.32 -2.66 11.64 -3 13 C-2.88490339 11.58249437 -2.75746342 10.16598831 -2.625 8.75 C-2.55539062 7.96109375 -2.48578125 7.1721875 -2.4140625 6.359375 C-2 4 -2 4 0 0 Z " fill="#EFAA79" transform="translate(296,222)"/>
<path d="M0 0 C0.99 0 1.98 0 3 0 C5.6252051 3.93780766 5.11235955 7.09551846 4.8125 11.625 C4.76424072 12.43372559 4.71598145 13.24245117 4.66625977 14.07568359 C4.25517443 19.8008973 3.26210428 24.68897257 1 30 C0.34 30 -0.32 30 -1 30 C-0.86722656 29.28457031 -0.73445313 28.56914062 -0.59765625 27.83203125 C2.5129062 13.70215004 2.5129062 13.70215004 0 0 Z " fill="#F1985D" transform="translate(371,186)"/>
<path d="M0 0 C0.66 0.33 1.32 0.66 2 1 C-0.05353123 4.08029684 -1.5024576 5.74370286 -5 7 C-7.97582414 7.27206143 -10.93587743 7.23234034 -13.921875 7.1953125 C-14.78186096 7.1924826 -15.64184692 7.18965271 -16.52789307 7.18673706 C-19.26873821 7.1755615 -22.00925398 7.15046179 -24.75 7.125 C-26.61067236 7.1149668 -28.47134985 7.10584155 -30.33203125 7.09765625 C-34.88814732 7.07563076 -39.44401786 7.04111897 -44 7 C-44 6.67 -44 6.34 -44 6 C-42.51004517 5.97812622 -42.51004517 5.97812622 -40.98999023 5.95581055 C-37.27902539 5.89751838 -33.56864785 5.8202897 -29.8581543 5.73754883 C-28.25701481 5.70444408 -26.65576268 5.67636779 -25.05444336 5.65356445 C-22.74284183 5.61975018 -20.43225922 5.56742549 -18.12109375 5.51171875 C-17.41351425 5.50532883 -16.70593475 5.4989389 -15.97691345 5.49235535 C-10.89134902 5.34435785 -7.52455927 4.08876583 -3 2 C-2.01 2 -1.02 2 0 2 C0 1.34 0 0.68 0 0 Z " fill="#EC874A" transform="translate(332,354)"/>
<path d="M0 0 C1.2380014 3.57644848 0.74926071 6.33694766 0 10 C0.66 10.33 1.32 10.66 2 11 C-0.95810476 12.47905238 -3.9547155 12.12190903 -7.1953125 12.09765625 C-7.90275604 12.0962413 -8.61019958 12.09482635 -9.33908081 12.09336853 C-11.60109669 12.087766 -13.86301398 12.07521318 -16.125 12.0625 C-17.65755065 12.05748532 -19.19010286 12.05292236 -20.72265625 12.04882812 C-24.48180888 12.03779577 -28.24088772 12.02052952 -32 12 C-31.67 11.34 -31.34 10.68 -31 10 C-21.43 10.33 -11.86 10.66 -2 11 C-1.67 8.03 -1.34 5.06 -1 2 C-0.67 1.34 -0.34 0.68 0 0 Z " fill="#4F4E4E" transform="translate(202,309)"/>
<path d="M0 0 C0.66 0 1.32 0 2 0 C1.35343144 8.89031769 -0.87022567 17.37193748 -3 26 C-3.33 26 -3.66 26 -4 26 C-4.34812606 16.73597885 -2.6267491 8.81837198 0 0 Z " fill="#ED9963" transform="translate(303,262)"/>
<path d="M0 0 C1.28165401 3.6213177 0.69558342 6.0326004 -0.3125 9.6875 C-1.67268457 14.77259369 -2.88542972 19.85582949 -4 25 C-4.33 25 -4.66 25 -5 25 C-4.7559377 15.84766371 -4.19922947 8.30080244 0 0 Z " fill="#EF9B62" transform="translate(151,181)"/>
<path d="M0 0 C2.96175123 0.61277612 4.38058783 1.25372522 7 3 C7 3.66 7 4.32 7 5 C5.02 4.34 3.04 3.68 1 3 C-0.58255197 7.32564205 -1.45144652 11.428721 -2 16 C-2.33 16 -2.66 16 -3 16 C-3 11.71 -3 7.42 -3 3 C-2.34 3 -1.68 3 -1 3 C-0.67 2.01 -0.34 1.02 0 0 Z " fill="#F19B61" transform="translate(204,275)"/>
<path d="M0 0 C2.5 1.75 2.5 1.75 5 4 C5 5.32 5 6.64 5 8 C5.66 8 6.32 8 7 8 C7.33 9.32 7.66 10.64 8 12 C10.31 12.66 12.62 13.32 15 14 C14.67 14.66 14.34 15.32 14 16 C6.78812428 13.5273569 3.27436308 9.66999887 0 3 C0 2.01 0 1.02 0 0 Z " fill="#F1A26D" transform="translate(98,372)"/>
<path d="M0 0 C0.33 0 0.66 0 1 0 C1.28555224 8.70934321 0.45552942 16.92741867 -3 25 C-3.33 25 -3.66 25 -4 25 C-4.24795864 19.22721294 -3.33663941 14.16645104 -2 8.5625 C-1.80921875 7.73556641 -1.6184375 6.90863281 -1.421875 6.05664062 C-0.95471563 4.03617634 -0.47830626 2.01785453 0 0 Z " fill="#F19E69" transform="translate(190,253)"/>
<path d="M0 0 C1.07465731 3.22397192 1.16691803 5.67470786 1.1875 9.0625 C1.20167969 10.12597656 1.21585937 11.18945312 1.23046875 12.28515625 C1 15 1 15 -1 17 C-1.6425235 19.06874034 -1.6425235 19.06874034 -2 21 C-2.66 21 -3.32 21 -4 21 C-3.54034292 13.69303751 -2.11670277 7.00242552 0 0 Z " fill="#F2A066" transform="translate(355,282)"/>
<path d="M0 0 C0.33 0 0.66 0 1 0 C1 4.29 1 8.58 1 13 C0.34 13 -0.32 13 -1 13 C-1 15.31 -1 17.62 -1 20 C-1.33 20 -1.66 20 -2 20 C-2.21133202 12.95559921 -2.07965362 6.75887425 0 0 Z " fill="#EF9354" transform="translate(282,283)"/>
<path d="M0 0 C0.33 0.66 0.66 1.32 1 2 C1.66 2 2.32 2 3 2 C5.45029331 7.71735105 6.33266291 11.79029227 6 18 C5.67 18 5.34 18 5 18 C4.67 15.36 4.34 12.72 4 10 C3.34 10 2.68 10 2 10 C0.68373308 6.38026598 0 3.90432869 0 0 Z " fill="#EE9E6B" transform="translate(397,160)"/>
<path d="M0 0 C5 5 5 5 6.5 6.6875 C8.47092441 8.41205886 10.54765165 9.13836409 13 10 C13 10.33 13 10.66 13 11 C10.03 10.67 7.06 10.34 4 10 C3.34 8.02 2.68 6.04 2 4 C1.34 4 0.68 4 0 4 C0 2.68 0 1.36 0 0 Z " fill="#ED9762" transform="translate(118,349)"/>
<path d="M0 0 C0.66 0 1.32 0 2 0 C1.67 5.61 1.34 11.22 1 17 C0.34 17 -0.32 17 -1 17 C-3.13636877 12.72726247 -2.28095666 7.4606363 -1 3 C-0.67 2.01 -0.34 1.02 0 0 Z " fill="#F09656" transform="translate(117,332)"/>
<path d="M0 0 C0.66 0 1.32 0 2 0 C1.152874 5.36513131 0.08318169 10.6787385 -1 16 C-1.33 16 -1.66 16 -2 16 C-2 12.04 -2 8.08 -2 4 C-1.34 4 -0.68 4 0 4 C0 2.68 0 1.36 0 0 Z " fill="#ED9964" transform="translate(135,250)"/>
<path d="M0 0 C0.66 0.33 1.32 0.66 2 1 C-0.0063228 4.0094842 -1.55455695 5.78396128 -5 7 C-7.75 7.125 -7.75 7.125 -10 7 C-10 6.34 -10 5.68 -10 5 C-3.375 2 -3.375 2 0 2 C0 1.34 0 0.68 0 0 Z " fill="#F0985E" transform="translate(332,354)"/>
<path d="M0 0 C1.98 0.99 1.98 0.99 4 2 C3.01 6.95 2.02 11.9 1 17 C0.67 17 0.34 17 0 17 C0 13.37 0 9.74 0 6 C0.66 6 1.32 6 2 6 C1.34 4.02 0.68 2.04 0 0 Z " fill="#EFA271" transform="translate(231,250)"/>
<path d="M0 0 C0.79921875 0.00902344 1.5984375 0.01804688 2.421875 0.02734375 C3.02515625 0.03894531 3.6284375 0.05054688 4.25 0.0625 C1.10408067 2.86295623 -0.817064 3.41511589 -5 3.25 C-5.89203125 3.22292969 -6.7840625 3.19585937 -7.703125 3.16796875 C-8.37859375 3.13316406 -9.0540625 3.09835938 -9.75 3.0625 C-8.75 1.0625 -8.75 1.0625 -6.984375 0.44140625 C-4.60849677 0.03850382 -2.40820483 -0.03541478 0 0 Z " fill="#EF894C" transform="translate(118.75,151.9375)"/>
<path d="M0 0 C1.26823485 3.65393537 0.75715321 6.49070026 0.0625 10.25 C-0.13214844 11.32765625 -0.32679688 12.4053125 -0.52734375 13.515625 C-0.68332031 14.33546875 -0.83929688 15.1553125 -1 16 C-1.66 16 -2.32 16 -3 16 C-2.30834212 10.58201328 -1.24200752 5.3177215 0 0 Z " fill="#F1A779" transform="translate(185,278)"/>
<path d="M0 0 C0.33 0 0.66 0 1 0 C1.05449838 1.72880982 1.09301688 3.45812712 1.125 5.1875 C1.14820313 6.15042969 1.17140625 7.11335938 1.1953125 8.10546875 C0.9913544 11.12812778 0.26874632 13.26769985 -1 16 C-1.33 16 -1.66 16 -2 16 C-2.2396943 10.36718401 -1.38529821 5.45461169 0 0 Z " fill="#F3A063" transform="translate(358,266)"/>
<path d="M0 0 C0.99 0.33 1.98 0.66 3 1 C2.34 4.63 1.68 8.26 1 12 C0.34 11.67 -0.32 11.34 -1 11 C-1.14285714 3.57142857 -1.14285714 3.57142857 0 0 Z " fill="#F87727" transform="translate(138,225)"/>
<path d="M0 0 C0.33 0 0.66 0 1 0 C1.2396943 5.63281599 0.38529821 10.54538831 -1 16 C-1.33 16 -1.66 16 -2 16 C-2.05423638 14.08364783 -2.09289963 12.16685075 -2.125 10.25 C-2.14820313 9.18265625 -2.17140625 8.1153125 -2.1953125 7.015625 C-2.00487687 4.07529894 -1.52670104 2.47638122 0 0 Z " fill="#EF955C" transform="translate(145,206)"/>
<path d="M0 0 C0.66 0.99 1.32 1.98 2 3 C-1.75 6 -1.75 6 -4 6 C-4.33 6.66 -4.66 7.32 -5 8 C-5 6.68 -5 5.36 -5 4 C-2.5 1.75 -2.5 1.75 0 0 Z " fill="#F39156" transform="translate(108,155)"/>
<path d="M0 0 C3.3 1.65 6.6 3.3 10 5 C10 5.66 10 6.32 10 7 C6.5625 6.1875 6.5625 6.1875 3 5 C2.67 4.01 2.34 3.02 2 2 C1.34 2 0.68 2 0 2 C0 1.34 0 0.68 0 0 Z " fill="#F1A164" transform="translate(214,239)"/>
<path d="M0 0 C3.71599191 -0.20086443 4.77208445 -0.1519437 8 2 C8.33 1.34 8.66 0.68 9 0 C8.67 1.65 8.34 3.3 8 5 C4.62496331 3.8141763 2.35277269 2.72426311 0 0 Z " fill="#EDB688" transform="translate(218,285)"/>
<path d="M0 0 C0.66 0.66 1.32 1.32 2 2 C1.7578125 4.1640625 1.7578125 4.1640625 1.125 6.625 C0.92132813 7.44226563 0.71765625 8.25953125 0.5078125 9.1015625 C0.34023437 9.72804687 0.17265625 10.35453125 0 11 C-0.66 11 -1.32 11 -2 11 C-1 3.57142857 -1 3.57142857 0 0 Z " fill="#424546" transform="translate(156,186)"/>
<path d="M0 0 C0.33 0 0.66 0 1 0 C1 2.31 1 4.62 1 7 C0.34 7 -0.32 7 -1 7 C-1 7.66 -1 8.32 -1 9 C-2.32 8.67 -3.64 8.34 -5 8 C-4.34 8 -3.68 8 -3 8 C-1.58622659 5.36095629 -0.62759865 2.92879371 0 0 Z " fill="#EF8B4B" transform="translate(227,278)"/>
<path d="M0 0 C-5.41538462 3.07692308 -5.41538462 3.07692308 -8.375 2.6875 C-9.179375 2.3471875 -9.179375 2.3471875 -10 2 C-9.34 2 -8.68 2 -8 2 C-8 1.34 -8 0.68 -8 0 C-4.71303767 -0.79953138 -3.28976808 -1.09658936 0 0 Z " fill="#F1A86F" transform="translate(392,387)"/>
<path d="M0 0 C2.32472205 2.85306797 3.7508258 5.54074837 5 9 C4.34 9 3.68 9 3 9 C1.7109375 7.25 1.7109375 7.25 0.375 5 C-0.07101562 4.2575 -0.51703125 3.515 -0.9765625 2.75 C-1.31429688 2.1725 -1.65203125 1.595 -2 1 C-1.34 0.67 -0.68 0.34 0 0 Z " fill="#F28F51" transform="translate(366,176)"/>
<path d="M0 0 C0.99 0.33 1.98 0.66 3 1 C1.35 2.98 -0.3 4.96 -2 7 C-2.66 6.67 -3.32 6.34 -4 6 C-3.67 5.01 -3.34 4.02 -3 3 C-2.01 3 -1.02 3 0 3 C0 2.01 0 1.02 0 0 Z " fill="#F1B27D" transform="translate(397,378)"/>
<path d="M0 0 C0.33 0.66 0.66 1.32 1 2 C1.66 2 2.32 2 3 2 C4 5 4 5 3 8 C2.34 8 1.68 8 1 8 C0.67 5.36 0.34 2.72 0 0 Z " fill="#444141" transform="translate(122,341)"/>
</svg>
